PathFileType  4	(X/Y/Z) C:\Users\antoi\Documents\MyRepositories\mobilecap\ResultsAnalysis
DataRate	CameraRate	NumFrames	NumMarkers	Units	OrigDataRate	OrigDataStartFrame	OrigNumFrames
100.0	100.0	6	51	mm	100.0	203	231
Frame#	Time	r_knee			r_shank_antsup			r_ankle			r_calc			r_5meta			r_toe			L_knee			L_shank_antsup			L_ankle			L_calc			L_5meta			L_toe			r_sh2			r_sh3			r_sh4			L_sh2			L_sh3			r_thigh1			r_thigh2			r_thigh3			r_thigh4			r_thigh5			L_thigh1			L_thigh2			L_thigh3			L_thigh4			r.ASIS			r.PSIS			L.ASIS			L.PSIS			C7			R_Shoulder			L_Shoulder			R_Sternum			L_Sternum			R_humerus			R_elbow_med			R_elbow_lat			R_forearm			R_wrist_radius			R_wrist_ulna			L_humerus			L_elbow_med			L_elbow_lat			L_forearm			L_wrist_radius			L_wrist_ulna			R_HJC			L_HJC			R_HJC_reg			L_HJC_reg			
		X1	Y1	Z1	X2	Y2	Z2	X3	Y3	Z3	X4	Y4	Z4	X5	Y5	Z5	X6	Y6	Z6	X7	Y7	Z7	X8	Y8	Z8	X9	Y9	Z9	X10	Y10	Z10	X11	Y11	Z11	X12	Y12	Z12	X13	Y13	Z13	X14	Y14	Z14	X15	Y15	Z15	X16	Y16	Z16	X17	Y17	Z17	X18	Y18	Z18	X19	Y19	Z19	X20	Y20	Z20	X21	Y21	Z21	X22	Y22	Z22	X23	Y23	Z23	X24	Y24	Z24	X25	Y25	Z25	X26	Y26	Z26	X27	Y27	Z27	X28	Y28	Z28	X29	Y29	Z29	X30	Y30	Z30	X31	Y31	Z31	X32	Y32	Z32	X33	Y33	Z33	X34	Y34	Z34	X35	Y35	Z35	X36	Y36	Z36	X37	Y37	Z37	X38	Y38	Z38	X39	Y39	Z39	X40	Y40	Z40	X41	Y41	Z41	X42	Y42	Z42	X43	Y43	Z43	X44	Y44	Z44	X45	Y45	Z45	X46	Y46	Z46	X47	Y47	Z47	X48	Y48	Z48	X49	Y49	Z49	X50	Y50	Z50	X51	Y51	Z51	

203	2.02000000	-82.63381	904.89359	-436.50640	-49.29336	807.43420	-429.71317	-136.36829	474.54171	-440.75927	-212.58214	486.49447	-506.39109	-96.77576	331.44018	-409.48024	-17.23110	330.43390	-451.18024	-54.18670	893.42025	-821.75495	-48.22166	805.52264	-846.93590	-58.44740	467.83789	-802.85499	-142.93508	471.64371	-743.48309	-3.08196	334.23598	-824.53139	64.48586	329.01514	-764.17295	-79.17633	701.26404	-401.40944	-115.84470	832.72359	-403.41535	-158.46121	724.26407	-397.85749	-138.04918	805.78380	-833.75073	-124.34438	684.23496	-831.31412	-44.45598	1232.07316	-436.28678	-28.60492	1123.77814	-434.73697	-79.55919	1091.44773	-407.69664	-154.70718	1210.37477	-443.09287	-130.19735	1098.32093	-431.37826	-2.46129	1187.73869	-819.86507	16.48984	1048.34666	-811.04506	-108.28363	1170.40290	-847.63805	-93.16726	1033.98453	-841.84540	-36.06824	1437.81821	-505.73791	-204.52898	1458.79400	-589.26251	-11.22972	1426.77268	-748.97852	-195.95497	1457.04673	-699.06343	-61.37559	1988.63427	-643.11708	-25.63552	1933.68532	-478.21725	-25.06594	1929.05897	-806.32583	51.03414	1891.58143	-606.32154	52.48413	1887.19480	-667.69123	-35.71601	1818.98719	-364.30853	-86.01328	1609.53587	-317.05623	-103.93382	1673.88860	-254.09740	56.94947	1718.66257	-257.13136	133.54285	1759.32752	-288.65523	139.95443	1728.55259	-254.79200	-87.92252	1836.59184	-895.42390	-218.04883	1624.67661	-872.08944	-204.73287	1655.44459	-954.03824	-147.61189	1605.93752	-979.34854	-28.54786	1478.03464	-996.39971	-60.30817	1453.87415	-1009.92185	-118.79813	1325.65831	-526.84537	-103.18116	1324.03189	-733.20959	-93.49603	1356.69016	-543.26011	-80.92211	1354.12704	-704.28832	
204	2.03000000	-81.21644	887.26671	-436.45084	-48.08056	789.80745	-429.46104	-135.43775	457.09798	-440.51298	-211.36464	469.32893	-506.61239	-96.71644	313.62142	-409.38631	-16.93447	312.40967	-450.57869	-52.38669	875.43279	-821.98322	-46.26710	787.71179	-847.29895	-57.12166	449.76094	-803.05718	-141.88703	453.58999	-744.19499	-1.37208	316.68932	-825.15964	65.79911	311.19822	-763.89775	-77.94434	683.79564	-401.32201	-114.72434	815.26575	-403.44958	-157.40373	706.81370	-397.85100	-136.23647	787.89215	-834.40677	-122.53553	666.42658	-832.19042	-42.99182	1214.44201	-436.98095	-26.39812	1106.21127	-435.36239	-77.86947	1073.90044	-408.19441	-153.22512	1192.75293	-443.53253	-128.64328	1080.78907	-431.51330	-0.21856	1169.63812	-819.77571	18.28131	1030.26988	-811.00337	-105.98616	1152.69437	-848.09288	-91.16534	1016.18004	-842.58544	-34.90864	1420.26694	-505.92741	-202.93428	1441.21374	-590.18050	-9.09413	1408.78499	-748.88533	-194.01561	1439.65000	-699.98769	-60.42363	1970.80291	-643.87353	-25.55262	1916.70863	-479.36938	-23.72812	1912.00072	-806.52792	52.14467	1873.96917	-606.73830	53.74509	1869.54003	-668.00242	-35.60926	1803.78701	-363.78979	-85.12871	1595.11935	-313.52829	-103.84513	1660.30067	-251.59015	56.13003	1707.73645	-256.38686	131.75943	1749.06182	-289.18444	138.92484	1718.96540	-254.90656	-88.63002	1821.47426	-895.42671	-223.84224	1612.78315	-870.63441	-210.88383	1643.61992	-952.75331	-154.24854	1594.06875	-978.07989	-35.11272	1466.74608	-996.36140	-66.96687	1442.46061	-1009.47081	-117.77238	1308.16470	-527.22620	-101.25873	1306.27747	-733.51841	-92.03778	1338.77461	-543.70088	-78.97050	1336.48333	-704.58742	
205	2.04000000	-79.82881	868.68384	-436.52063	-46.81270	771.17947	-429.38752	-134.80622	438.65430	-440.34406	-210.59436	450.91093	-506.65019	-96.46476	295.00296	-409.16989	-16.53387	293.60947	-450.14780	-50.42017	856.45325	-822.12953	-44.17373	768.76722	-847.34579	-55.92188	430.97788	-803.48150	-141.00438	434.52178	-744.77177	0.19211	298.12327	-825.49175	67.14847	292.51805	-763.91776	-77.00117	665.27260	-401.24046	-113.65350	796.81210	-403.68056	-156.26149	688.40768	-397.71571	-134.23995	769.10644	-835.19351	-120.74168	647.77278	-832.96654	-41.74393	1195.79980	-437.61771	-23.79831	1087.72071	-435.85952	-76.35869	1055.03759	-408.64023	-151.95979	1173.94409	-444.17993	-127.22365	1062.08555	-431.98337	2.05398	1150.55494	-819.61105	20.19612	1011.31156	-810.89272	-103.62307	1133.92557	-848.47135	-89.02275	997.44902	-843.34521	-33.69545	1401.65898	-506.06486	-201.35885	1422.47822	-591.05775	-6.97695	1389.99956	-748.87084	-192.10488	1421.05418	-700.76953	-59.50937	1951.96841	-644.75554	-25.50375	1898.82205	-480.60327	-22.44008	1893.93677	-806.64684	53.31487	1855.30259	-607.06426	54.98662	1850.81850	-668.30989	-35.46297	1787.69808	-363.51518	-83.97697	1579.89281	-310.28556	-103.56103	1645.74749	-249.25560	55.39551	1695.92750	-255.93493	129.98910	1738.02743	-289.79255	137.93887	1708.59357	-255.18832	-89.45709	1805.58590	-895.33356	-229.73837	1600.27005	-869.12382	-217.02136	1631.28527	-951.48462	-160.74926	1581.83148	-976.94303	-41.20289	1455.34863	-995.95712	-72.94433	1430.85224	-1008.84040	-116.52652	1289.53284	-527.65009	-99.19957	1287.55172	-733.87480	-90.53507	1319.90675	-544.08290	-76.96938	1317.81958	-704.90080	
206	2.05000000	-78.39682	849.14340	-436.61962	-45.66980	751.51067	-429.57207	-134.52403	419.02925	-440.32351	-210.28305	431.22949	-506.45678	-96.05902	275.51026	-408.95703	-16.13396	274.01636	-449.93348	-48.22243	836.50105	-822.11766	-41.87015	748.76043	-847.24413	-54.93126	411.41501	-803.88441	-140.33023	414.34830	-745.37839	1.56781	278.50344	-825.52321	68.34508	273.15737	-764.00468	-76.29837	645.62929	-401.18072	-112.45217	777.14032	-404.01548	-155.26050	669.13122	-397.70075	-132.02813	749.57011	-836.09048	-119.00625	628.18944	-833.44701	-40.57692	1176.13665	-438.18636	-21.97123	1068.13141	-436.34214	-75.11872	1035.07212	-409.15557	-150.78576	1154.08488	-444.84555	-125.97033	1042.19582	-432.77051	4.39215	1130.64870	-819.59240	22.31027	991.38729	-810.61308	-101.16619	1114.12651	-848.82128	-86.74313	977.73728	-843.90278	-32.47251	1381.94778	-506.17472	-199.87716	1402.72518	-591.79966	-4.94807	1370.38996	-748.93293	-190.28659	1401.35327	-701.53824	-58.62143	1932.17719	-645.55334	-25.37038	1880.01505	-481.90445	-21.17529	1874.94154	-806.89507	54.44114	1835.57459	-607.14605	56.18016	1831.10408	-668.73980	-35.22949	1770.77508	-363.37856	-82.66144	1563.74533	-307.46081	-103.17297	1630.11324	-247.21738	54.69718	1683.11990	-255.78731	128.17920	1726.11091	-290.63483	136.93291	1697.29533	-255.76932	-90.43269	1788.84774	-895.01033	-235.51316	1586.99255	-867.66255	-223.18281	1618.19514	-949.98657	-167.09146	1569.07938	-975.98141	-46.69958	1443.73307	-995.30221	-78.26233	1418.93026	-1007.95596	-115.21971	1269.79757	-528.14135	-97.16834	1267.89617	-734.30457	-89.13613	1300.16725	-544.40226	-75.08304	1298.15686	-705.20446	
207	2.06000000	-76.65705	828.55899	-436.74091	-44.64987	730.79465	-429.82605	-134.57815	398.28925	-440.37107	-210.43452	410.35604	-506.12393	-95.68212	254.99007	-408.86774	-15.76168	253.73316	-449.78671	-45.66149	815.65895	-822.07655	-39.26661	727.99411	-847.32594	-54.27116	391.00928	-804.19974	-140.03210	393.00496	-745.98909	2.84738	258.26542	-825.87753	69.36159	253.18795	-764.01497	-75.49018	625.00609	-401.26248	-111.08094	756.53883	-404.24969	-155.02435	649.15254	-397.72057	-129.53908	729.33900	-836.85396	-117.25269	607.78155	-833.74661	-39.44543	1155.35244	-438.65164	-21.11140	1047.31633	-436.63568	-74.12482	1014.31904	-409.76045	-149.64611	1133.27828	-445.48402	-124.81192	1021.21592	-433.67935	6.87107	1109.94641	-819.70674	24.64049	970.55701	-810.22353	-98.62187	1093.39971	-849.32868	-84.27770	956.98587	-844.14217	-31.24389	1361.18792	-506.30263	-198.49696	1381.98898	-592.38882	-3.22605	1349.79290	-748.88365	-188.65058	1380.71559	-702.28259	-57.73729	1911.36281	-646.14414	-25.18226	1860.27380	-483.06436	-20.00784	1854.90098	-807.20433	55.35912	1814.90490	-607.38427	57.29756	1810.45297	-669.37212	-34.94328	1752.95169	-363.28023	-81.20000	1546.53397	-305.04490	-102.69345	1613.30757	-245.51813	53.93540	1669.16612	-255.93916	126.21837	1713.19162	-291.86379	135.83295	1684.97633	-256.75898	-91.50117	1771.27288	-894.73685	-241.11189	1572.84682	-866.08277	-229.30481	1604.18183	-948.27322	-173.26165	1555.49834	-974.78769	-51.63627	1431.64036	-994.27077	-83.00824	1406.54219	-1006.88229	-114.02133	1249.04951	-528.58892	-95.39059	1247.27203	-734.70174	-87.81609	1279.43012	-544.70548	-73.41915	1277.56804	-705.39441	
208	2.07000000	-74.94679	806.81716	-436.82584	-43.48847	709.02478	-429.98290	-135.13410	376.66756	-440.52810	-211.24633	388.26488	-505.97002	-95.42583	233.48525	-408.94340	-15.43060	233.00065	-449.65605	-42.56055	794.05022	-822.25553	-36.28518	706.53658	-847.47771	-54.00113	369.81239	-804.53182	-140.30703	370.58821	-746.53749	4.05992	237.59381	-826.47159	70.29170	232.56071	-764.12131	-74.68018	603.46767	-401.42828	-109.84532	735.31637	-404.33344	-155.21709	628.33446	-397.67403	-126.63750	708.45225	-837.33991	-115.38034	586.78296	-834.00922	-38.33564	1133.49229	-438.99045	-20.35209	1025.40626	-436.64349	-73.22607	992.68879	-410.28177	-148.52603	1111.49924	-446.32274	-123.67993	999.32790	-434.56967	9.46198	1088.37003	-819.76468	27.19752	948.95823	-809.83922	-96.00308	1071.74010	-849.80342	-81.53852	935.24517	-844.19105	-30.00074	1339.40171	-506.58400	-197.18504	1360.17585	-592.88907	-1.88061	1328.18408	-748.80682	-187.23833	1359.16427	-702.77312	-56.79266	1889.49860	-646.61606	-24.93346	1839.56417	-484.03775	-18.98185	1833.73570	-807.47541	55.84295	1793.41235	-608.82209	58.39587	1788.79791	-670.02503	-34.61436	1734.03559	-363.31973	-79.54165	1528.14975	-303.04206	-102.06669	1595.18333	-244.10846	53.11693	1653.96801	-256.39594	124.05345	1699.15045	-293.36811	134.63551	1671.52261	-258.08045	-92.65913	1752.76757	-894.52194	-246.57227	1557.73006	-864.17402	-235.24470	1589.22888	-946.56191	-179.26797	1540.88324	-973.07882	-56.26419	1418.69857	-992.58275	-87.20561	1393.50912	-1005.69458	-112.85636	1227.26809	-529.00126	-93.92784	1225.66399	-735.08840	-86.46801	1257.55536	-545.16006	-71.94426	1256.07880	-705.60765	
